<?xml version="1.0" standalone="no"?>
<!DOCTYPE svg PUBLIC "-//W3C//DTD SVG 20010904//EN"
 "http://www.w3.org/TR/2001/REC-SVG-20010904/DTD/svg10.dtd">
<svg version="1.0" xmlns="http://www.w3.org/2000/svg"
 width="959.000000pt" height="147.000000pt" viewBox="0 0 959.000000 147.000000"
 preserveAspectRatio="xMidYMid meet">

<g transform="translate(0.000000,147.000000) scale(0.100000,-0.100000)"
fill="#000000" stroke="none">
<path d="M9283 1431 c-102 -74 -109 -224 -14 -304 161 -135 394 58 291 241
-36 63 -90 92 -172 92 -56 0 -71 -4 -105 -29z m187 -23 c55 -38 75 -73 75
-133 0 -153 -195 -212 -281 -86 -50 74 -22 185 58 224 48 24 108 21 148 -5z"/>
<path d="M9344 1347 c-3 -8 -4 -45 -2 -83 2 -55 6 -69 20 -72 12 -2 17 5 20
30 l3 33 20 -32 c19 -33 45 -44 45 -20 0 6 -7 20 -15 30 -12 16 -11 21 6 38
25 25 24 54 -3 73 -28 20 -87 21 -94 3z m74 -39 c-7 -19 -38 -22 -38 -4 0 10
9 16 21 16 12 0 19 -5 17 -12z"/>
<path d="M5410 1024 c-122 -33 -211 -99 -275 -205 -95 -156 -98 -414 -8 -582
37 -68 118 -148 184 -180 51 -26 60 -27 216 -27 183 0 205 6 284 77 22 20 41
34 43 32 2 -2 7 -26 12 -54 l9 -50 73 -3 72 -3 -2 268 -3 268 -220 0 -220 0
-3 -77 -3 -78 131 0 132 0 -7 -32 c-16 -81 -95 -164 -175 -188 -47 -13 -131
-13 -188 2 -69 17 -151 102 -177 183 -27 81 -27 208 0 295 40 133 158 211 299
196 106 -11 178 -61 213 -148 l15 -38 95 0 96 0 -7 46 c-12 89 -89 195 -181
248 -102 60 -283 83 -405 50z"/>
<path d="M7385 1021 c-90 -26 -144 -58 -205 -120 -95 -98 -140 -218 -140 -376
0 -214 96 -386 261 -469 51 -25 59 -26 231 -26 173 0 180 1 231 26 116 58 198
156 238 283 24 76 29 252 10 335 -29 123 -130 257 -233 309 -115 58 -273 73
-393 38z m285 -189 c111 -56 155 -154 148 -331 -6 -155 -43 -227 -148 -289
-40 -24 -55 -27 -135 -27 -106 0 -147 17 -212 87 -58 64 -78 129 -78 258 0 94
3 111 28 165 31 65 64 105 114 136 74 46 194 46 283 1z"/>
<path d="M7 1013 c-12 -12 -8 -148 5 -161 8 -8 58 -12 160 -12 l148 0 2 -402
3 -403 98 -3 97 -3 0 405 0 405 153 3 152 3 3 88 3 87 -409 0 c-225 0 -412 -3
-415 -7z"/>
<path d="M890 525 l0 -495 95 0 95 0 0 210 0 210 223 -2 222 -3 3 -207 2 -208
95 0 95 0 0 495 0 495 -95 0 -95 0 -2 -197 -3 -198 -220 0 -220 0 -5 195 -5
195 -92 3 -93 3 0 -496z"/>
<path d="M1850 525 l0 -495 365 0 365 0 0 85 0 85 -267 2 -268 3 0 120 0 120
243 3 242 2 0 85 0 85 -245 0 -245 0 0 110 0 110 268 2 267 3 3 88 3 87 -366
0 -365 0 0 -495z"/>
<path d="M2920 525 l0 -495 95 0 95 0 0 153 0 153 76 74 c60 60 77 72 84 60 5
-8 48 -72 97 -142 48 -70 114 -166 146 -213 l58 -85 109 0 c63 0 110 4 110 9
0 9 -56 91 -268 396 -19 28 -55 79 -80 113 l-45 64 196 196 c109 109 197 201
197 205 0 4 -51 7 -113 7 l-113 0 -224 -225 c-123 -124 -225 -225 -227 -225
-1 0 -4 100 -5 223 l-3 222 -92 3 -93 3 0 -496z"/>
<path d="M3830 525 l0 -495 95 0 95 0 -2 493 -3 492 -92 3 -93 3 0 -496z"/>
<path d="M4140 525 l0 -496 93 3 92 3 -3 349 c-2 226 0 346 6 342 6 -3 25 -32
42 -64 18 -31 114 -187 212 -345 l180 -288 107 3 106 3 0 490 0 490 -92 3 -93
3 0 -358 0 -358 -55 95 c-30 52 -128 212 -218 355 l-163 260 -107 3 -107 3 0
-496z"/>
<path d="M6130 526 l0 -496 229 0 c257 0 309 7 401 52 117 57 202 169 230 302
16 79 14 228 -5 299 -40 153 -136 257 -285 308 -59 20 -89 23 -317 27 l-253 4
0 -496z m530 289 c97 -53 140 -145 140 -297 0 -154 -58 -257 -166 -298 -48
-18 -75 -20 -183 -18 l-126 3 -3 323 -2 324 142 -4 c137 -3 145 -4 198 -33z"/>
<path d="M8110 525 l0 -495 90 0 90 0 2 368 3 367 37 -110 c21 -60 80 -226
130 -367 l93 -258 80 0 80 0 79 223 c43 122 103 292 132 377 l54 155 0 -377 0
-378 90 0 90 0 0 495 0 495 -134 0 c-95 0 -136 -4 -143 -12 -10 -13 -32 -74
-172 -490 l-77 -226 -58 176 c-31 98 -87 260 -124 362 l-67 185 -138 3 -137 3
0 -496z"/>
</g>
</svg>
